<?xml version="1.0" encoding="utf-8"?><svg version="1.1" id="Layer_1" xmlns="http://www.w3.org/2000/svg" xmlns:xlink="http://www.w3.org/1999/xlink" x="0px" y="0px" viewBox="0 0 528.4 163.8" style="enable-background:new 0 0 528.4 163.8;" xml:space="preserve"><style type="text/css">.st0{fill:#C8B18B;}.st1{fill:none;stroke:#C8B18B;}</style><g><g><g><path class="st0" d="M205.1,139l-0.4,1.8h-0.8l-2.5,4.1c-0.5,0.8-1.8,1.6-1.8,1.6l1.8,2.6c0.3,0.5,0.4,1.1,0.4,1.7v4.9l-2.5,0.4V150l-7-10.3l1.9-1.2l4.5,6.8l2.9-5.3l0.3-1.8h0.8l0.3,0.8H205.1z"/><path class="st0" d="M212.3,146l-2.5,0.4v-5.5h-2.4l0.5-2.6h0.8l0.3,0.8h2.9c0.2,0,0.3,0.1,0.3,0.3V146z"/><path class="st0" d="M228.8,150.3l-0.4,1.8h-12.7l0.4-1.8h8.8c0,0-0.7-0.6-0.7-1.3V143c0-1.2-0.5-2.2-2.2-2.2H216l0.5-2.6h0.8l0.3,0.8h5c2.7,0,4.1,1.4,4.1,4v6.2c0,0.7,0.4,1,0.4,1H228.8z"/><path class="st0" d="M236,151.9l-2.5,0.4v-11.5h-0.1h-2l0.5-2.6h0.8l0.3,0.8h2.6c0.2,0,0.3,0.1,0.3,0.3V151.9z"/><path class="st0" d="M254.7,140.8l-6,11.1l-2.9,0.3l6.1-11.5h-8.1v14.8l-2.5,0.4v-12.9c0-0.9,0.6-2.3,0.6-2.3h-1.8l0.5-2.6h0.8l0.3,0.8h12.6c0.2,0,0.3,0.1,0.3,0.3V140.8z"/><path class="st0" d="M268,151.9l-2.5,0.4V143c0-1.2-0.5-2.2-2.2-2.2h-5.9l0.5-2.6h0.8l0.3,0.8h4.9c2.8,0,4.1,1.4,4.1,4V151.9z"/><path class="st0" d="M284.7,150.3l-0.3,1.8h-12.7l0.4-1.8h8.8c0,0-0.7-0.6-0.7-1.3V143c0-1.2-0.5-2.2-2.2-2.2h-6.1l0.5-2.6h0.8l0.3,0.8h5c2.7,0,4.1,1.4,4.1,4v6.2c0,0.7,0.4,1,0.4,1H284.7z"/><path class="st0" d="M298.4,146l-2.5,0.4v-5.5h-2.4l0.5-2.6h0.8l0.3,0.8h2.9c0.2,0,0.3,0.1,0.3,0.3V146z"/><path class="st0" d="M316,147c0,2.6-1.9,5.3-6.1,5.3c-4.2,0-6.4-2.7-6.4-5.3v-3.9l0.6-2.3h-1.8l0.5-2.6h0.8l0.3,0.8h8c2.4,0,4.1,1.4,4.1,4V147z M313.5,143c0-1.4-0.9-2.2-2.7-2.2H306v6.2c0,1.4,1.3,3.4,3.9,3.4c2.8,0,3.6-2.1,3.6-3.4V143z"/><path class="st0" d="M324.1,151.9l-2.5,0.4v-11.5h-0.1h-2l0.5-2.6h0.9l0.3,0.8h2.6c0.2,0,0.3,0.1,0.3,0.3V151.9z"/><path class="st0" d="M332.8,146l-2.5,0.4v-5.5h-2.4l0.5-2.6h0.8l0.3,0.8h2.9c0.2,0,0.3,0.1,0.3,0.3V146z"/></g><line class="st1" x1="388.6" y1="145.5" x2="343.1" y2="145.5"/><line class="st1" x1="186.4" y1="145.5" x2="140.9" y2="145.5"/></g><g><g><g><path class="st0" d="M152.1,8.3c-0.2,5.2-1,40.3,11.5,30.5c6.4-5,8.7-16.4,10.8-23.7c0.5-1.7,1-3.3,1.5-4.9c-0.5,0.5-0.9,1.1-1.3,1.6c-0.2,1.5-0.5,2.9-0.8,4.4c-0.4,2.2-0.8,4.4-1.3,6.6c-2,9.5-4.7,18.7-8.4,27.7c-0.3,0.6,0.9,0.7,1.1,0.2c5.4-13.2,8.6-27,10.9-41.1c0.1-0.6-1-0.5-1.1,0c-1.5,4.5-2.7,9.1-4.2,13.5c-1.8,5.3-4.1,12.9-9.1,16c-8.7,5.4-8.5-26.7-8.4-30.8C153.3,7.6,152.1,7.7,152.1,8.3L152.1,8.3z"/></g><g><path class="st0" d="M216.7,38.4c2.2-1,3.5-1.9,4.4-4.1c0.1-0.3-0.2-0.6-0.5-0.5c-6.8,0.7-5.4,7.5,0.6,8.6c4.9,0.9,17.2-1.9,16.9-8.6c0-0.2-0.1-0.3-0.3-0.4c-0.3-0.1-0.7-0.3-1-0.4c-0.3-0.1-0.7,0-0.8,0.2c-2.3,3.4,0.4,4.8,4,4c1.5-0.3,0.7,1.8,1.7,2.6c1,0.7,2,0.9,3.2,0.8c7.6-0.3,19.3-9.4,19.4-17.4c0-0.4-0.4-0.5-0.7-0.4c-5.4,1.2-9.5,7.3-8.6,12.8c0.3,2.2,0.7,4.3,3,4.7c2,0.4,3.1-3.5,2.5-0.1c0,0.2,0.1,0.3,0.3,0.4c8.9,2.3,16.6-2.5,25.5-2.5c0.4,0,1-0.6,0.4-0.8c-2.3-0.8-7.6-1.6-9.5,0.4c-2.5,2.5,2.9,3.9,4.7,4c1.9,0,3.7-1.1,5.1-2.3c0.4-0.3,0.7-0.8,0.8-1.2c0.1-0.4,5.4,1.1,6.3,1.3c1.6,0.4,4,0.4,5.5-0.5c0.9-0.6,2.5,3.2,3.7,3.5c1.4,0.3,2.2,0.1,3.4-0.7c0.5-0.3,1-2,1.8-0.8c0.3,0.5,1.4,1.7,2.1,2c1.2,0.3,1.8,0.3,2.9-0.2c0.8-0.4,1.6-1.3,2.2-1.9c2.5-2.3,6.3-0.6,9.1,0.1c0.9,0.3,2.5,0.3,3.4-0.2c3-1.9,4.6-0.2,7.7,0.5c1.9,0.5,4,0,5.9-0.6c4.3-1.3,7.6-2.7,12.3-2.1c0.6,0.1,1.2-0.7,0.4-0.9c-2.2-0.6-9.5-1.2-7.1,3.3c2.9,5.4,13.6,1.2,17.2-0.6c2-1,3.9-1.9,6.1-2.6c1.3-0.4,6.1-1.9,3.8,0.3c-0.6,0.5-0.2,1.3,0.4,1.6c4.2,1.9,10.8,0.8,14.3-2.1c0.6-0.5-0.3-1-0.8-0.6c-2.3,1.9-5,2.4-8,2.6c-1,0.1-7-0.5-3.2-1.9c0.4-0.2,0.4-0.7-0.1-0.8c-9.6-1.3-17.2,7.9-26.7,5.1c-6.8-2.1,6.5-4.3,0.8-4.5c-1.5-0.1-2.9,0.2-4.3,0.5c-6.5,1.4-9.6,3.8-16.4-0.1c-0.3-0.2-0.7-0.1-0.9,0.2c-3.5,4.6-8-0.4-12,0.6c-3.7,1-5.4,6-9.1,0.1c-0.2-0.4-0.9-0.1-1.1,0.2c-3.7,2.8-5.7,2.3-6.1-1.3c-0.1-0.4-0.7-0.3-1-0.1c-4.3,2.7-8.6,0.4-12.8-0.6c-0.3-0.1-0.7,0.2-0.8,0.5c-2.3,4.3-4.5,4.4-6.6,0.3c1.1-0.1,2.2-0.1,3.3,0c3.1,0.2-1.8,0-2.7,0.2c-3.4,0.7-19.7,6.1-18.6-0.5c0.1-0.6-0.8-0.4-1.1-0.1c-1.6-0.1-3.2-0.2-4.8-0.2c-0.3-1.4-0.4-2.8-0.2-4.2c0.3-1.4,0.7-2.7,1.4-3.9c1.1-2.3,3-3.8,5.5-4.5c-0.1,3.5-3.4,6.7-5.8,8.9c-2.1,2-16.3,11.4-15.2,3.3c0.1-0.4-0.4-0.4-0.7-0.4c-1.6-0.6-3.2-1.3-4.9-1.9c0.6,1,0.4,1.9-0.8,2.9c-1.6,2.1-4.7,3.1-7.1,3.8c-1.6,0.5-3.3,0.7-5,0.8c-1.7,0.2-3.4-0.2-4.9-1c-0.4-1.5-1.3-2.5-2.7-2.8C215.4,38,216.1,38.7,216.7,38.4L216.7,38.4z"/></g><g><path class="st0" d="M329.4,35c0.5,0,1.2-0.7,0.4-0.7C329.4,34.3,328.6,35,329.4,35L329.4,35z"/></g><g><path class="st0" d="M200.9,18.7c-2.9,6.9-6.2,13.5-10.7,19.4c-0.4,0.6,0.5,0.7,0.9,0.4c7-5.1,11.8-13.1,20.5-15.7c1.8-0.5,8.8-0.9,7.5,2.7c-0.6,1.6-2.4,3-3.6,4c-2.4,2.1-5.2,3.9-7.7,5.9c-0.4,0.3-0.1,0.7,0.3,0.7c3.6,2.2,3.6,3.7-0.1,4.3c-0.7,0.2-0.5,1,0.2,0.8c2.1-0.7,4.6-1.7,4.9-4.1c0.1-0.8-0.7-1.3-1.2-1.6c-0.3-0.2-0.7-0.3-1.1-0.3c-1-0.1-2.2,0.6-1.3-0.1c2.2-1.7,13.7-8.3,10.2-12.1c-1.5-1.7-5.5-1.6-7.4-1.2c-4.7,0.9-8.4,3.7-11.9,6.7c-1.6,1.4-3.2,3-4.7,4.5c-1.1,1-2.1,2.1-3.3,3.1c-2.2,1.9-0.8,1.4,0.5-0.3c3.7-5.2,6.5-11.1,8.9-17C202.3,18.2,201.1,18.2,200.9,18.7L200.9,18.7z"/></g><g><path class="st0" d="M217.2,37.1c-1.7,1.1-6.4,4.5-8.7,3.4c-0.5-0.2-1.3,0.5-0.7,0.8c1.3,0.6,2.9,0,4.1-0.5c2.1-0.8,4.1-2,6-3.2C218.7,37.2,217.7,36.8,217.2,37.1L217.2,37.1z"/></g><g><path class="st0" d="M175.3,36.3c-0.3,0.6-0.5,1.2-0.5,1.8c0,0.2-0.1,0.6,0,0.8c0.2,0.2,0.4,0.4,0.6,0.6c0.7,0.6,1.4-0.2,2.1-0.5c0.7-0.3,0.1-0.9-0.5-0.6c-0.3,0.1-0.5,0.3-0.7,0.4c-0.1,0-0.1,0.1-0.2,0.1c0.3-0.1,0.4,0.1,0.1-0.2c-0.5-0.5-0.1-1.8,0.2-2.3C176.7,35.8,175.5,35.8,175.3,36.3L175.3,36.3z"/></g></g><g><g><path class="st0" d="M99.6,33.5c0-1.1-0.8-1.8-2.5-1.8c-1.7,0-2.6,0.7-2.6,1.6c0,2.7,6.7,1.2,6.7,4.4c0,1.8-1.7,2.7-4.2,2.7c-2.6,0-4-0.9-4-2.7v-0.3h1.2v0.3c0,1.2,0.9,1.9,2.8,1.9c1.8,0,3-0.6,3-1.9c0-2.7-6.7-1.2-6.7-4.4c0-1.4,1.4-2.4,3.8-2.4c2.6,0,3.8,0.9,3.8,2.5H99.6z"/><path class="st0" d="M104.9,31.2h1.2v9.1h-1.2V31.2z"/><path class="st0" d="M110.4,31.2h1.7l5.3,7.9h0v-7.9h1.2v9.1h-1.7l-5.3-7.9h-0.1v7.9h-1.2V31.2z"/><path class="st0" d="M131.2,37.2c-0.2,2.1-1.6,3.2-4.1,3.2c-2.9,0-4.4-1.4-4.4-4.7c0-3.3,1.6-4.7,4.4-4.7c2.8,0,4,1.3,4,2.8h-1.2c0-1.2-1-2.1-2.7-2.1c-2,0-3.2,1.1-3.2,4c0,3,1.2,4,3.2,4c1.7,0,2.7-1,2.9-2.6H131.2z"/><path class="st0" d="M134.8,31.2h6.9v0.7H136v3.3h5.3v0.7H136v3.7h5.8v0.7h-7.1V31.2z"/></g></g><g><g><path class="st0" d="M398.5,32.8h-3.2v-0.6c2.3,0,3.4-0.6,3.4-1.5h0.9v9h-1.2V32.8z"/><path class="st0" d="M407.6,37.7c0.1,0.9,0.8,1.5,2.2,1.5c1.9,0,2.9-1.1,2.9-4.1l0,0c-0.5,0.9-1.5,1.5-2.9,1.5c-2.4,0-3.6-1.1-3.6-2.8c0-1.7,1.2-3.1,3.8-3.1c3.1,0,4,1.5,4,4.3c0,3-0.9,4.8-4.2,4.8c-2.2,0-3.3-0.9-3.4-2.1H407.6z M409.9,35.9c1.9,0,2.6-1.2,2.6-2.3c0-1.2-0.7-2.3-2.6-2.3c-1.9,0-2.6,1.1-2.6,2.3C407.3,34.8,408,35.9,409.9,35.9z"/><path class="st0" d="M418.9,37.7c0.1,0.9,0.8,1.5,2.2,1.5c1.9,0,2.8-1.1,2.9-4.1l0,0c-0.4,0.9-1.5,1.5-3,1.5c-2.4,0-3.6-1.1-3.6-2.8c0-1.7,1.2-3.1,3.8-3.1c3.1,0,4,1.5,4,4.3c0,3-0.9,4.8-4.2,4.8c-2.2,0-3.3-0.9-3.4-2.1H418.9z M421.2,35.9c1.9,0,2.6-1.2,2.6-2.3c0-1.2-0.7-2.3-2.6-2.3c-1.9,0-2.6,1.1-2.6,2.3C418.6,34.8,419.3,35.9,421.2,35.9z"/><path class="st0" d="M432.6,30.7c3.1,0,3.9,1.9,3.9,4.6c0,2.7-0.7,4.6-3.9,4.6c-3.1,0-3.9-1.9-3.9-4.6C428.7,32.6,429.4,30.7,432.6,30.7z M432.6,39.2c1.9,0,2.6-1.1,2.6-4c0-2.9-0.8-3.9-2.6-3.9c-1.9,0-2.6,1-2.6,3.9C429.9,38.2,430.7,39.2,432.6,39.2z"/></g></g></g><g><g><rect x="287.4" y="95.5" class="st0" width="6" height="16.7"/><rect x="374.4" y="72.6" class="st0" width="6.7" height="39.3"/><g><rect x="6.9" y="105.4" class="st0" width="93.1" height="6.7"/><rect x="93.3" y="72" class="st0" width="6.6" height="39.8"/><rect x="6" y="72.6" class="st0" width="6.6" height="39.4"/><rect x="6" y="72.1" class="st0" width="93.4" height="6.7"/></g><g><rect x="146.2" y="105.4" class="st0" width="94.4" height="6.7"/><rect x="146.2" y="71.6" class="st0" width="6.6" height="38.4"/><rect x="234.3" y="74" class="st0" width="6.7" height="37.6"/></g><g><rect x="407.3" y="72.2" class="st0" width="6.6" height="17.6"/><rect x="395.9" y="72.1" class="st0" width="18.1" height="6.7"/></g><g><rect x="263.6" y="72.2" class="st0" width="6.7" height="40"/><rect x="252.1" y="72.1" class="st0" width="18.1" height="6.7"/></g><rect x="286.3" y="72.1" class="st0" width="94.7" height="6.7"/><g><rect x="516.7" y="72.6" class="st0" width="6.7" height="39.6"/><rect x="428.7" y="72.1" class="st0" width="94.7" height="6.7"/></g><g><rect x="125.3" y="72.2" class="st0" width="6.7" height="17.6"/><rect x="113.8" y="72.1" class="st0" width="18.1" height="6.7"/></g></g><rect x="220.7" y="71.1" class="st0" width="20.3" height="7"/></g></g></svg>